<?xml version="1.0" encoding="UTF-8" standalone="no"?>
<!DOCTYPE svg PUBLIC "-//W3C//DTD SVG 1.1//EN" "http://www.w3.org/Graphics/SVG/1.1/DTD/svg11.dtd">
<svg xmlns="http://www.w3.org/2000/svg" version="1.1" viewBox="0 0 460 460">
<g stroke-width="2.00" fill="none" stroke-linecap="butt">
<path stroke="#808080" vector-effect="non-scaling-stroke" d="
  M 151.73 226.32
  L 51.71 353.46
  Q 50.69 354.75 52.33 354.75
  L 104.44 354.75
  A 1.01 1.00 18.9 0 0 105.23 354.37
  L 206.72 226.33
  A 1.00 1.00 0.0 0 0 206.72 225.09
  Q 160.10 165.81 113.47 106.54
  Q 113.19 106.17 112.94 105.75
  A 1.01 1.00 -15.0 0 0 112.07 105.25
  L 58.42 105.25
  Q 56.77 105.25 57.80 106.55
  L 151.73 225.08
  A 1.00 1.00 0.0 0 1 151.73 226.32"
/>
<path stroke="#808080" vector-effect="non-scaling-stroke" d="
  M 275.62 184.16
  A 0.33 0.33 0.0 0 1 275.10 184.16
  L 213.07 105.38
  A 0.33 0.33 0.0 0 0 212.81 105.25
  L 148.18 105.25
  A 0.33 0.33 0.0 0 0 147.92 105.78
  L 242.79 225.51
  A 0.33 0.33 0.0 0 1 242.79 225.91
  L 141.82 354.22
  A 0.33 0.33 0.0 0 0 142.08 354.75
  L 408.64 354.75
  A 0.33 0.33 0.0 0 0 408.90 354.22
  L 307.94 225.90
  A 0.33 0.33 0.0 0 1 307.94 225.50
  L 402.82 105.78
  A 0.33 0.33 0.0 0 0 402.56 105.25
  L 337.92 105.25
  A 0.33 0.33 0.0 0 0 337.66 105.38
  L 275.62 184.16"
/>
<path stroke="#808080" vector-effect="non-scaling-stroke" d="
  M 245.15 304.80
  A 0.43 0.43 0.0 0 0 245.48 305.50
  L 305.26 305.50
  A 0.43 0.43 0.0 0 0 305.59 304.80
  L 275.71 267.11
  A 0.43 0.43 0.0 0 0 275.03 267.11
  L 245.15 304.80"
/>
</g>
<path fill="#000000" d="
  M 0.00 0.00
  L 460.00 0.00
  L 460.00 460.00
  L 0.00 460.00
  L 0.00 0.00
  Z
  M 151.73 226.32
  L 51.71 353.46
  Q 50.69 354.75 52.33 354.75
  L 104.44 354.75
  A 1.01 1.00 18.9 0 0 105.23 354.37
  L 206.72 226.33
  A 1.00 1.00 0.0 0 0 206.72 225.09
  Q 160.10 165.81 113.47 106.54
  Q 113.19 106.17 112.94 105.75
  A 1.01 1.00 -15.0 0 0 112.07 105.25
  L 58.42 105.25
  Q 56.77 105.25 57.80 106.55
  L 151.73 225.08
  A 1.00 1.00 0.0 0 1 151.73 226.32
  Z
  M 275.62 184.16
  A 0.33 0.33 0.0 0 1 275.10 184.16
  L 213.07 105.38
  A 0.33 0.33 0.0 0 0 212.81 105.25
  L 148.18 105.25
  A 0.33 0.33 0.0 0 0 147.92 105.78
  L 242.79 225.51
  A 0.33 0.33 0.0 0 1 242.79 225.91
  L 141.82 354.22
  A 0.33 0.33 0.0 0 0 142.08 354.75
  L 408.64 354.75
  A 0.33 0.33 0.0 0 0 408.90 354.22
  L 307.94 225.90
  A 0.33 0.33 0.0 0 1 307.94 225.50
  L 402.82 105.78
  A 0.33 0.33 0.0 0 0 402.56 105.25
  L 337.92 105.25
  A 0.33 0.33 0.0 0 0 337.66 105.38
  L 275.62 184.16
  Z"
/>
<path fill="#ffffff" d="
  M 151.73 226.32
  A 1.00 1.00 0.0 0 0 151.73 225.08
  L 57.80 106.55
  Q 56.77 105.25 58.42 105.25
  L 112.07 105.25
  A 1.01 1.00 -15.0 0 1 112.94 105.75
  Q 113.19 106.17 113.47 106.54
  Q 160.10 165.81 206.72 225.09
  A 1.00 1.00 0.0 0 1 206.72 226.33
  L 105.23 354.37
  A 1.01 1.00 18.9 0 1 104.44 354.75
  L 52.33 354.75
  Q 50.69 354.75 51.71 353.46
  L 151.73 226.32
  Z"
/>
<path fill="#ffffff" d="
  M 275.62 184.16
  L 337.66 105.38
  A 0.33 0.33 0.0 0 1 337.92 105.25
  L 402.56 105.25
  A 0.33 0.33 0.0 0 1 402.82 105.78
  L 307.94 225.50
  A 0.33 0.33 0.0 0 0 307.94 225.90
  L 408.90 354.22
  A 0.33 0.33 0.0 0 1 408.64 354.75
  L 142.08 354.75
  A 0.33 0.33 0.0 0 1 141.82 354.22
  L 242.79 225.91
  A 0.33 0.33 0.0 0 0 242.79 225.51
  L 147.92 105.78
  A 0.33 0.33 0.0 0 1 148.18 105.25
  L 212.81 105.25
  A 0.33 0.33 0.0 0 1 213.07 105.38
  L 275.10 184.16
  A 0.33 0.33 0.0 0 0 275.62 184.16
  Z
  M 245.15 304.80
  A 0.43 0.43 0.0 0 0 245.48 305.50
  L 305.26 305.50
  A 0.43 0.43 0.0 0 0 305.59 304.80
  L 275.71 267.11
  A 0.43 0.43 0.0 0 0 275.03 267.11
  L 245.15 304.80
  Z"
/>
<path fill="#000000" d="
  M 245.15 304.80
  L 275.03 267.11
  A 0.43 0.43 0.0 0 1 275.71 267.11
  L 305.59 304.80
  A 0.43 0.43 0.0 0 1 305.26 305.50
  L 245.48 305.50
  A 0.43 0.43 0.0 0 1 245.15 304.80
  Z"
/>
</svg>
